PathFileType	4	(X/Y/Z)	C:/Users/beibeiliu/ov580/test_trc/User1\sequence.26_training_dense_left.trc
DataRate	CameraRate	NumFrames	NumMarkers	Units	OrigDataRate	OrigDataStartFrame	OrigNumFrames
120	120	9	19	mm	120	83	330
Frame#	Time	ThumbCMC			ThumbMCP			ThumbIP			ThumbTip			IndexMCP			IndexPIP			IndexTip			MiddleMCP			MiddlePIP			MiddleTip			RingMCP			RingPIP			RingTip			PinkyMCP			PinkyPIP			PinkyTip			BackHand1			BackHand2			BackHand3	
		X0	Y0	Z0	X1	Y1	Z1	X2	Y2	Z2	X3	Y3	Z3	X4	Y4	Z4	X5	Y5	Z5	X6	Y6	Z6	X7	Y7	Z7	X8	Y8	Z8	X9	Y9	Z9	X10	Y10	Z10	X11	Y11	Z11	X12	Y12	Z12	X13	Y13	Z13	X14	Y14	Z14	X15	Y15	Z15	X16	Y16	Z16	X17	Y17	Z17	X18	Y18	Z18	
82	0.683333	-95.5482	-20.2008	52.5728	-82.1985	-31.0312	20.3891	-94.2807	-29.351	-12.1705	-118.932	-32.1702	-25.0695	-98.591	26.7888	-21.5548	-100.001	31.707	-46.8939	-106.838	32.8142	-74.4212	-123.169	29.9403	-29.7647	-120.945	34.3329	-62.1437	-124.911	37.1082	-90.5597	-143.935	-1.89527	-34.6354	-140.883	-34.6533	-37.1581	-132.755	-40.7219	-3.60397	-164.288	-12.5356	-18.9672	-152.226	-41.2923	-16.0249	-142.615	-39.9679	14.7811	-151.391	18.599	24.1591	-157.465	9.27848	60.0397	-123.381	13.6727	50.1677	
83	0.691667	-97.6448	-23.208	54.5356	-79.1446	-33.2899	19.0822	-90.8653	-30.5647	-9.67011	-114.039	-34.2602	-28.7199	-96.6661	24.7507	-20.0978	-99.5043	31.1	-47.4486	-102.99	33.6631	-73.6847	-123.519	31.5822	-33.4732	-122.698	33.9073	-59.9744	-124.061	36.768	-87.6524	-143.215	-0.0382982	-33.3857	-140.269	-33.7049	-38.0977	-136.874	-41.6958	-3.15486	-165.617	-13.0252	-19.2669	-155.125	-41.1448	-15.53	-139.978	-36.8596	15.6013	-153.246	17.9161	24.4405	-159.793	8.38232	59.6745	-120.34	13.1921	48.7044	
84	0.7	-94.0495	-21.7841	51.8967	-78.8619	-33.5776	18.2975	-83.4052	-33.3516	-12.5437	-106.167	-36.6401	-31.7232	-95.748	24.6974	-18.9611	-99.3156	30.9629	-49.9303	-99.8307	33.6512	-72.3307	-118.092	30.8653	-32.9218	-120.622	34.7968	-57.1149	-119.367	38.6127	-88.0729	-143.587	-0.501433	-34.5209	-137.166	-35.3767	-35.6717	-134.257	-41.0948	-2.41995	-160.858	-13.3261	-20.7803	-153.872	-40.7629	-13.408	-138.486	-36.6982	15.8385	-152.377	20.6719	25.252	-156.776	7.75745	62.2976	-117.7	12.7491	49.4613	
85	0.708333	-93.5986	-25.131	52.6107	-81.3324	-34.8707	18.4108	-85.467	-35.099	-10.0092	-100.932	-37.6665	-34.8179	-96.4467	24.438	-21.1549	-98.279	29.5846	-44.7263	-100.98	33.6244	-72.8191	-117.258	31.2385	-29.9678	-116.279	35.2557	-60.0595	-118.032	38.0033	-86.6786	-144.352	-0.309611	-34.8999	-135.781	-33.7805	-37.4491	-136.402	-41.313	-2.3015	-163.713	-15.913	-21.4648	-151.636	-39.4738	-12.7446	-139.751	-35.8587	21.4951	-151.653	18.2506	27.2803	-153.354	9.59074	59.5399	-116.71	10.0901	51.869	
86	0.716667	-94.9236	-25.3115	51.5272	-80.3763	-37.9273	16.8764	-80.7328	-40.1105	-11.2478	-98.7546	-39.6742	-39.4693	-96.5064	23.4073	-20.2184	-93.7133	31.5565	-47.5526	-98.6882	35.0169	-75.6924	-120.354	30.79	-29.4794	-116.498	34.4326	-56.9696	-119.201	40.7446	-90.8252	-140.895	-0.446078	-34.1734	-137.804	-35.6003	-35.5186	-135.63	-42.3853	-5.94486	-159.898	-13.0838	-19.8491	-147.174	-38.022	-9.98391	-139.871	-35.7594	19.6089	-150.558	16.8155	27.8076	-151.377	10.9011	59.1445	-114.426	11.6538	50.3575	
87	0.725	-92.9483	-27.1307	49.8912	-79.6541	-41.207	14.562	-85.8478	-39.6804	-13.3583	-96.6377	-44.6547	-40.4486	-95.0411	24.4532	-22.9225	-95.5037	30.3994	-47.227	-97.7813	34.6826	-75.0903	-115.567	31.4733	-32.412	-113.138	35.2366	-58.4056	-115.925	38.5494	-86.6983	-143.275	0.244037	-35.1778	-136.157	-33.114	-38.9925	-133.28	-41.0715	-4.97066	-159.697	-13.3166	-19.4066	-149.14	-40.9665	-9.24078	-139.41	-34.9806	19.178	-149.824	18.5392	26.9101	-153.825	7.90797	62.2074	-115.213	11.1066	49.4494	
88	0.733333	-92.0719	-25.6915	46.7533	-82.2155	-40.9461	13.9798	-84.3817	-41.7296	-19.5724	-103.738	-43.0189	-41.0683	-95.6682	22.8704	-21.4392	-93.244	30.7043	-51.3423	-99.3784	34.0621	-73.825	-119.101	31.4343	-35.3026	-115.937	35.1179	-61.7227	-114.341	38.6648	-86.6895	-143.907	0.420958	-34.0955	-136.175	-31.6	-40.4747	-134.436	-41.0691	-7.89659	-159.237	-14.0848	-20.6067	-148.097	-39.4595	-12.9196	-139.195	-38.259	17.5991	-147.777	17.4157	27.6703	-154.23	8.92087	59.7471	-113.665	11.6174	44.6306	
89	0.741667	-93.3785	-25.7108	45.5322	-83.9489	-40.9534	12.1344	-90.6179	-41.4973	-18.475	-104.184	-46.5142	-39.687	-95.2837	22.1733	-23.477	-93.8533	28.6182	-51.731	-94.1174	34.1888	-77.0188	-118.183	30.4461	-35.6191	-112.464	33.8606	-61.6151	-115.156	38.5636	-88.6651	-140.002	-1.25178	-36.37	-136.569	-34.8773	-40.5656	-131.258	-41.2408	-7.83985	-162.633	-15.1573	-20.0891	-147.414	-41.8208	-12.7991	-135.262	-35.4969	17.1845	-151.046	15.7596	25.3555	-155.992	8.02549	59.4278	-114.215	12.4001	45.1107	
90	0.75	-91.1453	-28.0461	48.142	-86.2996	-42.4249	11.5829	-91.5451	-44.8272	-21.9679	-111.937	-44.8986	-40.3162	-96.1113	21.0756	-22.2202	-93.9934	26.4939	-47.481	-95.5005	31.3563	-77.1858	-116.808	26.9737	-31.3308	-113.344	31.0968	-58.2559	-113.37	36.8585	-90.4545	-138.819	-1.72358	-34.3737	-134.492	-37.2149	-39.7148	-133.553	-42.0892	-2.50546	-161.15	-20.7162	-22.2826	-145.84	-42.4624	-15.3742	-134.651	-39.7654	13.8163	-145.837	13.5891	25.2436	-155.675	6.37966	56.1061	-112.898	11.7544	47.1436	
